<?xml version="1.0" encoding="UTF-8"?>
<svg version="1.1" xmlns="http://www.w3.org/2000/svg" width="1563" height="1563">
<path d="M0 0 C515.79 0 1031.58 0 1563 0 C1563 515.79 1563 1031.58 1563 1563 C1047.21 1563 531.42 1563 0 1563 C0 1047.21 0 531.42 0 0 Z " fill="#000000" transform="translate(0,0)"/>
<path d="M0 0 C1.37310707 1.29233607 2.71034824 2.62437146 4 4 C6.63222962 5.25436187 6.63222962 5.25436187 9 6 C9 6.66 9 7.32 9 8 C9.969375 8.12375 10.93875 8.2475 11.9375 8.375 C13.4534375 8.684375 13.4534375 8.684375 15 9 C15.33 9.66 15.66 10.32 16 11 C16.99 11.33 17.98 11.66 19 12 C19 12.66 19 13.32 19 14 C20.32 14.33 21.64 14.66 23 15 C23 15.66 23 16.32 23 17 C23.886875 17.103125 24.77375 17.20625 25.6875 17.3125 C29.08731248 18.01812146 31.11609687 19.12936013 34 21 C34.99 21.33 35.98 21.66 37 22 C37.33 22.66 37.66 23.32 38 24 C38.99 24.33 39.98 24.66 41 25 C41 25.66 41 26.32 41 27 C42.32 27.33 43.64 27.66 45 28 C45 28.66 45 29.32 45 30 C45.94875 30.144375 46.8975 30.28875 47.875 30.4375 C51 31 51 31 53 32 C53 32.66 53 33.32 53 34 C54.98 34.33 56.96 34.66 59 35 C59.33 36.32 59.66 37.64 60 39 C60.969375 39.12375 61.93875 39.2475 62.9375 39.375 C63.948125 39.58125 64.95875 39.7875 66 40 C66.33 40.66 66.66 41.32 67 42 C68.97888961 42.72693904 70.97954558 43.39816251 73 44 C73 44.66 73 45.32 73 46 C74.65 46.33 76.3 46.66 78 47 C78 47.66 78 48.32 78 49 C79.32 49.33 80.64 49.66 82 50 C82 50.66 82 51.32 82 52 C82.969375 52.12375 83.93875 52.2475 84.9375 52.375 C85.948125 52.58125 86.95875 52.7875 88 53 C88.33 53.66 88.66 54.32 89 55 C89.99 55.33 90.98 55.66 92 56 C92 56.66 92 57.32 92 58 C92.81791016 58.1546875 92.81791016 58.1546875 93.65234375 58.3125 C96.55839027 59.16352194 98.92866901 60.5092875 101.5625 62 C104.3990959 63.6011179 106.90665163 64.96888388 110 66 C110.33 66.66 110.66 67.32 111 68 C111.99 68.33 112.98 68.66 114 69 C114 69.66 114 70.32 114 71 C115.32 71.33 116.64 71.66 118 72 C118 72.66 118 73.32 118 74 C118.886875 74.103125 119.77375 74.20625 120.6875 74.3125 C124.08731248 75.01812146 126.11609687 76.12936013 129 78 C129.99 78.33 130.98 78.66 132 79 C132.33 79.66 132.66 80.32 133 81 C133.99 81.33 134.98 81.66 136 82 C136 82.66 136 83.32 136 84 C136.53625 84.103125 137.0725 84.20625 137.625 84.3125 C140.62502044 85.18092697 143.2379535 86.55620296 146 88 C146 88.66 146 89.32 146 90 C147.65 90.33 149.3 90.66 151 91 C151 91.66 151 92.32 151 93 C152.32 93.33 153.64 93.66 155 94 C155 94.66 155 95.32 155 96 C155.969375 96.12375 156.93875 96.2475 157.9375 96.375 C158.948125 96.58125 159.95875 96.7875 161 97 C161.33 97.66 161.66 98.32 162 99 C163.97888961 99.72693904 165.97954558 100.39816251 168 101 C168 101.66 168 102.32 168 103 C169.65 103.33 171.3 103.66 173 104 C173 104.66 173 105.32 173 106 C174.32 106.33 175.64 106.66 177 107 C177 107.66 177 108.32 177 109 C177.969375 109.12375 178.93875 109.2475 179.9375 109.375 C180.948125 109.58125 181.95875 109.7875 183 110 C183.33 110.66 183.66 111.32 184 112 C184.99 112.33 185.98 112.66 187 113 C187 113.66 187 114.32 187 115 C187.57234375 115.12246094 188.1446875 115.24492188 188.734375 115.37109375 C191.09953191 116.02762868 193.07206797 116.93723512 195.25 118.0625 C196.30960938 118.60583984 196.30960938 118.60583984 197.390625 119.16015625 C197.92171875 119.43730469 198.4528125 119.71445312 199 120 C199 120.66 199 121.32 199 122 C199.969375 122.12375 200.93875 122.2475 201.9375 122.375 C202.948125 122.58125 203.95875 122.7875 205 123 C205.33 123.66 205.66 124.32 206 125 C206.99 125.33 207.98 125.66 209 126 C209 126.66 209 127.32 209 128 C210.32 128.33 211.64 128.66 213 129 C213 129.66 213 130.32 213 131 C214.134375 131.12375 215.26875 131.2475 216.4375 131.375 C217.613125 131.58125 218.78875 131.7875 220 132 C220.33 132.66 220.66 133.32 221 134 C221.99 134.33 222.98 134.66 224 135 C224 135.66 224 136.32 224 137 C224.598125 137.144375 225.19625 137.28875 225.8125 137.4375 C227.56150404 137.8872439 229.28677023 138.42892341 231 139 C231 139.66 231 140.32 231 141 C231.99 141 232.98 141 234 141 C234.33 141.66 234.66 142.32 235 143 C237.31254012 144.04718798 239.6485148 145.04346365 242 146 C243.34013497 146.65288627 244.67741528 147.31225595 246 148 C246 148.66 246 149.32 246 150 C246.969375 150.12375 247.93875 150.2475 248.9375 150.375 C249.948125 150.58125 250.95875 150.7875 252 151 C252.33 151.66 252.66 152.32 253 153 C253.99 153.33 254.98 153.66 256 154 C256 154.66 256 155.32 256 156 C256.8971875 156.2165625 256.8971875 156.2165625 257.8125 156.4375 C259.56150404 156.8872439 261.28677023 157.42892341 263 158 C263 158.66 263 159.32 263 160 C264.65 160.33 266.3 160.66 268 161 C268 288.71 268 416.42 268 548 C213.22 548 158.44 548 102 548 C101.67 422.27 101.34 296.54 101 167 C99.02 166.67 97.04 166.34 95 166 C94.67 165.34 94.34 164.68 94 164 C89.14747548 161.02906662 84.10460504 158.50752528 79 156 C79 155.34 79 154.68 79 154 C77.68 153.67 76.36 153.34 75 153 C75 152.34 75 151.68 75 151 C73.35 150.67 71.7 150.34 70 150 C70 149.34 70 148.68 70 148 C69.0925 147.71125 68.185 147.4225 67.25 147.125 C60.37209302 144.74418605 60.37209302 144.74418605 59 142 C58.01 141.67 57.02 141.34 56 141 C56 140.34 56 139.68 56 139 C54.35 138.67 52.7 138.34 51 138 C51 137.34 51 136.68 51 136 C50.401875 135.855625 49.80375 135.71125 49.1875 135.5625 C47.43849596 135.1127561 45.71322977 134.57107659 44 134 C44 133.34 44 132.68 44 132 C42.68 131.67 41.36 131.34 40 131 C40 130.34 40 129.68 40 129 C39.01 129 38.02 129 37 129 C37 128.34 37 127.68 37 127 C36.2575 126.87625 35.515 126.7525 34.75 126.625 C32.19858515 126.04513299 30.2732427 125.26291261 28 124 C28 123.34 28 122.68 28 122 C26.02 121.67 24.04 121.34 22 121 C22 120.34 22 119.68 22 119 C21.2575 118.71125 20.515 118.4225 19.75 118.125 C17.43260203 117.17697356 15.22082885 116.15154089 13 115 C13 114.34 13 113.68 13 113 C11.68 112.67 10.36 112.34 9 112 C9 111.34 9 110.68 9 110 C8.030625 109.87625 7.06125 109.7525 6.0625 109.625 C5.051875 109.41875 4.04125 109.2125 3 109 C2.67 108.34 2.34 107.68 2 107 C-1.29853496 104.74959765 -4.46798033 102.73189656 -8.5 103.4375 C-9.99615099 104.37259437 -11.48939579 105.31240087 -12.9765625 106.26171875 C-13.68554688 106.71160156 -14.39453125 107.16148437 -15.125 107.625 C-15.78757812 108.07101562 -16.45015625 108.51703125 -17.1328125 108.9765625 C-19 110 -19 110 -22 110 C-22.33 110.99 -22.66 111.98 -23 113 C-23.99 113 -24.98 113 -26 113 C-26 113.66 -26 114.32 -26 115 C-27.24735567 115.6509259 -28.49801832 116.29551669 -29.75 116.9375 C-30.44609375 117.29714844 -31.1421875 117.65679688 -31.859375 118.02734375 C-33.90224433 118.95558182 -35.81115376 119.53166578 -38 120 C-38 120.66 -38 121.32 -38 122 C-38.99 122.33 -39.98 122.66 -41 123 C-41.33 123.66 -41.66 124.32 -42 125 C-45.0625 125.625 -45.0625 125.625 -48 126 C-48 126.66 -48 127.32 -48 128 C-49.65 128.33 -51.3 128.66 -53 129 C-53.33 129.99 -53.66 130.98 -54 132 C-54.99 132 -55.98 132 -57 132 C-57 132.66 -57 133.32 -57 134 C-57.99 134.33 -58.98 134.66 -60 135 C-60.33 135.66 -60.66 136.32 -61 137 C-63.3251719 138.07315626 -65.62171122 139.06370526 -68 140 C-68.969375 140.391875 -69.93875 140.78375 -70.9375 141.1875 C-71.618125 141.455625 -72.29875 141.72375 -73 142 C-73 142.66 -73 143.32 -73 144 C-74.98 144.33 -76.96 144.66 -79 145 C-79.33 145.99 -79.66 146.98 -80 148 C-80.99 148 -81.98 148 -83 148 C-83 148.66 -83 149.32 -83 150 C-83.99 150 -84.98 150 -86 150 C-86.33 150.99 -86.66 151.98 -87 153 C-88.65 153.33 -90.3 153.66 -92 154 C-92 154.66 -92 155.32 -92 156 C-92.969375 156.28875 -93.93875 156.5775 -94.9375 156.875 C-98.10664203 157.64214682 -98.10664203 157.64214682 -99 160 C-100.7421875 161.0703125 -100.7421875 161.0703125 -102.875 162.125 C-103.92300781 162.65480469 -103.92300781 162.65480469 -104.9921875 163.1953125 C-107 164 -107 164 -110 164 C-110.33 164.99 -110.66 165.98 -111 167 C-111.99 167 -112.98 167 -114 167 C-114.33 292.73 -114.66 418.46 -115 548 C-170.11 548 -225.22 548 -282 548 C-282.02202741 498.98731849 -282.04049849 449.97464164 -282.05106533 400.9619566 C-282.0523161 395.18134345 -282.05361042 389.40073032 -282.05493164 383.62011719 C-282.05519395 382.46925512 -282.05545626 381.31839305 -282.05572652 380.13265638 C-282.06008305 361.47484379 -282.06797051 342.81703428 -282.0771528 324.15922351 C-282.0864898 305.02810411 -282.09205571 285.89698632 -282.09408849 266.76586473 C-282.09546362 254.95193544 -282.09981368 243.13801482 -282.10791647 231.3240882 C-282.1131845 223.23326887 -282.11480416 215.14245405 -282.11350138 207.05163313 C-282.11285809 202.37706432 -282.1138745 197.7025107 -282.11920547 193.02794456 C-282.12404358 188.75458852 -282.12433591 184.48125799 -282.12089889 180.20790081 C-282.12047361 178.65605802 -282.12176589 177.10421368 -282.12488318 175.55237396 C-282.12885476 173.45447853 -282.12675858 171.35667711 -282.12304783 169.25878334 C-282.12342755 168.09000416 -282.12380727 166.92122499 -282.1241985 165.71702826 C-282 163 -282 163 -281 161 C-279.26250159 159.94314146 -277.48455145 158.95208024 -275.6875 158 C-274.72199219 157.484375 -273.75648438 156.96875 -272.76171875 156.4375 C-271.85035156 155.963125 -270.93898438 155.48875 -270 155 C-268.92685547 154.4121875 -268.92685547 154.4121875 -267.83203125 153.8125 C-266 153 -266 153 -263 153 C-262.67 152.01 -262.34 151.02 -262 150 C-261.01 150 -260.02 150 -259 150 C-259 149.34 -259 148.68 -259 148 C-257.25318707 147.01515892 -255.5024149 146.03733813 -253.75 145.0625 C-252.77546875 144.51722656 -251.8009375 143.97195313 -250.796875 143.41015625 C-248.46389591 142.23389165 -246.54649238 141.47898309 -244 141 C-244 140.34 -244 139.68 -244 139 C-243.01 138.67 -242.02 138.34 -241 138 C-240.67 137.34 -240.34 136.68 -240 136 C-237.03560422 134.63637794 -234.04613905 133.41598443 -231.015625 132.2109375 C-227.32812361 130.91621333 -227.32812361 130.91621333 -225 128 C-224.01 128 -223.02 128 -222 128 C-222 127.34 -222 126.68 -222 126 C-219.35261084 124.5393715 -218.10551666 124 -215 124 C-215 123.34 -215 122.68 -215 122 C-214.01 122 -213.02 122 -212 122 C-211.505 120.515 -211.505 120.515 -211 119 C-207.535 118.505 -207.535 118.505 -204 118 C-203.505 116.515 -203.505 116.515 -203 115 C-202.01 115 -201.02 115 -200 115 C-200 114.34 -200 113.68 -200 113 C-199.01 112.67 -198.02 112.34 -197 112 C-196.67 111.34 -196.34 110.68 -196 110 C-192.9375 109.375 -192.9375 109.375 -190 109 C-190 108.34 -190 107.68 -190 107 C-188.68 106.67 -187.36 106.34 -186 106 C-186 105.34 -186 104.68 -186 104 C-184.35 103.67 -182.7 103.34 -181 103 C-181 102.34 -181 101.68 -181 101 C-179.02 100.67 -177.04 100.34 -175 100 C-174.505 98.515 -174.505 98.515 -174 97 C-172.02 96.67 -170.04 96.34 -168 96 C-167.979375 95.401875 -167.95875 94.80375 -167.9375 94.1875 C-167 92 -167 92 -163.6875 90.375 C-162.470625 89.92125 -161.25375 89.4675 -160 89 C-159.2575 88.608125 -158.515 88.21625 -157.75 87.8125 C-156 87 -156 87 -153 87 C-152.67 86.01 -152.34 85.02 -152 84 C-151.01 84 -150.02 84 -149 84 C-149 83.34 -149 82.68 -149 82 C-148.01 81.67 -147.02 81.34 -146 81 C-145.67 80.34 -145.34 79.68 -145 79 C-143.35411853 78.29462223 -141.70556011 77.59472404 -140.04296875 76.9296875 C-137.09083275 75.58626806 -134.47657874 73.80512039 -131.796875 71.98828125 C-130 71 -130 71 -127 71 C-127 70.34 -127 69.68 -127 69 C-126.01 68.67 -125.02 68.34 -124 68 C-123.67 67.34 -123.34 66.68 -123 66 C-119.9375 65.375 -119.9375 65.375 -117 65 C-116.67 64.01 -116.34 63.02 -116 62 C-114.2578125 60.83203125 -114.2578125 60.83203125 -112.125 59.8125 C-111.42632813 59.46832031 -110.72765625 59.12414062 -110.0078125 58.76953125 C-108 58 -108 58 -105 58 C-105 57.34 -105 56.68 -105 56 C-104.01 55.67 -103.02 55.34 -102 55 C-101.67 54.34 -101.34 53.68 -101 53 C-100.030625 52.87625 -99.06125 52.7525 -98.0625 52.625 C-97.051875 52.41875 -96.04125 52.2125 -95 52 C-94.690625 51.360625 -94.38125 50.72125 -94.0625 50.0625 C-93 48 -93 48 -89.375 46.75 C-88.26125 46.5025 -87.1475 46.255 -86 46 C-86 45.34 -86 44.68 -86 44 C-83.03 43.505 -83.03 43.505 -80 43 C-79.67 42.01 -79.34 41.02 -79 40 C-78.01 40 -77.02 40 -76 40 C-76 39.34 -76 38.68 -76 38 C-75.01 37.67 -74.02 37.34 -73 37 C-72.67 36.34 -72.34 35.68 -72 35 C-69.68745988 33.95281202 -67.3514852 32.95653635 -65 32 C-63.88625 31.4121875 -63.88625 31.4121875 -62.75 30.8125 C-61 30 -61 30 -58 30 C-57.67 29.01 -57.34 28.02 -57 27 C-56.01 27 -55.02 27 -54 27 C-54 26.34 -54 25.68 -54 25 C-53.01 24.67 -52.02 24.34 -51 24 C-50.67 23.34 -50.34 22.68 -50 22 C-47.68745988 20.95281202 -45.3514852 19.95653635 -43 19 C-42.2575 18.608125 -41.515 18.21625 -40.75 17.8125 C-39 17 -39 17 -36 17 C-35.67 16.01 -35.34 15.02 -35 14 C-34.01 14 -33.02 14 -32 14 C-32 13.34 -32 12.68 -32 12 C-31.01 11.67 -30.02 11.34 -29 11 C-28.67 10.34 -28.34 9.68 -28 9 C-24.9375 8.375 -24.9375 8.375 -22 8 C-22 7.34 -22 6.68 -22 6 C-20.35 5.67 -18.7 5.34 -17 5 C-17 4.34 -17 3.68 -17 3 C-14.35261084 1.5393715 -13.10551666 1 -10 1 C-10 0.34 -10 -0.32 -10 -1 C-5.96877462 -2.34374179 -3.94393885 -1.4530301 0 0 Z " fill="#FDFDFD" transform="translate(788,512)"/>
<path d="M0 0 C1.00114082 -0.00128403 1.00114082 -0.00128403 2.02250671 -0.00259399 C4.26431962 -0.0042482 6.5060577 0.00127286 8.74786377 0.00672913 C10.38035708 0.00703547 12.01285053 0.00690196 13.64534378 0.00636387 C18.01883298 0.00613802 22.39229484 0.01193579 26.76577759 0.0189743 C30.86901944 0.02466733 34.97225462 0.02493732 39.07550049 0.02565002 C51.07729448 0.03089829 63.07908337 0.04485943 75.08087158 0.05775452 C101.89337158 0.07837952 128.70587158 0.09900452 156.33087158 0.12025452 C156.33087158 76.02025452 156.33087158 151.92025452 156.33087158 230.12025452 C151.33087158 232.12025452 151.33087158 232.12025452 148.33087158 232.12025452 C148.33087158 232.78025452 148.33087158 233.44025452 148.33087158 234.12025452 C147.34087158 234.45025452 146.35087158 234.78025452 145.33087158 235.12025452 C145.00087158 235.78025452 144.67087158 236.44025452 144.33087158 237.12025452 C141.26837158 237.74525452 141.26837158 237.74525452 138.33087158 238.12025452 C138.33087158 238.78025452 138.33087158 239.44025452 138.33087158 240.12025452 C137.01087158 240.45025452 135.69087158 240.78025452 134.33087158 241.12025452 C134.33087158 241.78025452 134.33087158 242.44025452 134.33087158 243.12025452 C131.42486897 244.37690429 129.53482574 245.12025452 126.33087158 245.12025452 C126.33087158 245.78025452 126.33087158 246.44025452 126.33087158 247.12025452 C125.34087158 247.45025452 124.35087158 247.78025452 123.33087158 248.12025452 C123.00087158 248.78025452 122.67087158 249.44025452 122.33087158 250.12025452 C119.26837158 250.74525452 119.26837158 250.74525452 116.33087158 251.12025452 C116.00087158 252.11025452 115.67087158 253.10025452 115.33087158 254.12025452 C114.34087158 254.12025452 113.35087158 254.12025452 112.33087158 254.12025452 C112.33087158 254.78025452 112.33087158 255.44025452 112.33087158 256.12025452 C110.68087158 256.45025452 109.03087158 256.78025452 107.33087158 257.12025452 C107.33087158 257.78025452 107.33087158 258.44025452 107.33087158 259.12025452 C105.35087158 259.45025452 103.37087158 259.78025452 101.33087158 260.12025452 C101.00087158 261.11025452 100.67087158 262.10025452 100.33087158 263.12025452 C99.34087158 263.12025452 98.35087158 263.12025452 97.33087158 263.12025452 C97.33087158 263.78025452 97.33087158 264.44025452 97.33087158 265.12025452 C94.68348242 266.58088302 93.43638824 267.12025452 90.33087158 267.12025452 C90.33087158 267.78025452 90.33087158 268.44025452 90.33087158 269.12025452 C88.58405865 270.1050956 86.83328648 271.08291639 85.08087158 272.05775452 C83.61907471 272.87566467 83.61907471 272.87566467 82.12774658 273.71009827 C79.79476749 274.88636287 77.87736396 275.64127143 75.33087158 276.12025452 C75.33087158 276.78025452 75.33087158 277.44025452 75.33087158 278.12025452 C74.34087158 278.45025452 73.35087158 278.78025452 72.33087158 279.12025452 C72.00087158 279.78025452 71.67087158 280.44025452 71.33087158 281.12025452 C68.03937132 282.64409723 64.77156086 283.97335809 61.33087158 285.12025452 C61.33087158 285.78025452 61.33087158 286.44025452 61.33087158 287.12025452 C58.42486897 288.37690429 56.53482574 289.12025452 53.33087158 289.12025452 C53.33087158 289.78025452 53.33087158 290.44025452 53.33087158 291.12025452 C52.34087158 291.45025452 51.35087158 291.78025452 50.33087158 292.12025452 C50.00087158 292.78025452 49.67087158 293.44025452 49.33087158 294.12025452 C46.26837158 294.74525452 46.26837158 294.74525452 43.33087158 295.12025452 C43.33087158 295.78025452 43.33087158 296.44025452 43.33087158 297.12025452 C42.01087158 297.45025452 40.69087158 297.78025452 39.33087158 298.12025452 C39.33087158 298.78025452 39.33087158 299.44025452 39.33087158 300.12025452 C37.68087158 300.45025452 36.03087158 300.78025452 34.33087158 301.12025452 C34.33087158 301.78025452 34.33087158 302.44025452 34.33087158 303.12025452 C32.87680908 303.55337952 32.87680908 303.55337952 31.39337158 303.99525452 C28.22422955 304.76240133 28.22422955 304.76240133 27.33087158 307.12025452 C26.34087158 307.12025452 25.35087158 307.12025452 24.33087158 307.12025452 C24.33087158 307.78025452 24.33087158 308.44025452 24.33087158 309.12025452 C22.02087158 309.78025452 19.71087158 310.44025452 17.33087158 311.12025452 C17.33087158 311.78025452 17.33087158 312.44025452 17.33087158 313.12025452 C15.68087158 313.45025452 14.03087158 313.78025452 12.33087158 314.12025452 C12.33087158 314.78025452 12.33087158 315.44025452 12.33087158 316.12025452 C10.35087158 316.45025452 8.37087158 316.78025452 6.33087158 317.12025452 C6.00087158 318.11025452 5.67087158 319.10025452 5.33087158 320.12025452 C4.34087158 320.12025452 3.35087158 320.12025452 2.33087158 320.12025452 C2.33087158 320.78025452 2.33087158 321.44025452 2.33087158 322.12025452 C-0.31651758 323.58088302 -1.56361176 324.12025452 -4.66912842 324.12025452 C-4.66912842 324.78025452 -4.66912842 325.44025452 -4.66912842 326.12025452 C-6.64912842 326.45025452 -8.62912842 326.78025452 -10.66912842 327.12025452 C-10.66912842 219.54025452 -10.66912842 111.96025452 -10.66912842 1.12025452 C-6.84877616 0.16516645 -3.91420556 -0.00301093 0 0 Z " fill="#FEFEFE" transform="translate(516.6691284179688,323.87974548339844)"/>
<path d="M0 0 C1.12664063 -0.00128906 2.25328125 -0.00257812 3.4140625 -0.00390625 C5.15816406 0.00189453 5.15816406 0.00189453 6.9375 0.0078125 C8.10023438 0.00394531 9.26296875 0.00007813 10.4609375 -0.00390625 C11.58757813 -0.00261719 12.71421875 -0.00132813 13.875 0 C14.89464844 0.00112793 15.91429687 0.00225586 16.96484375 0.00341797 C20.02646192 0.13668486 22.92800479 0.56825183 25.9375 1.1328125 C25.9375 1.7928125 25.9375 2.4528125 25.9375 3.1328125 C30.3925 4.1228125 30.3925 4.1228125 34.9375 5.1328125 C34.9375 5.7928125 34.9375 6.4528125 34.9375 7.1328125 C36.2575 7.4628125 37.5775 7.7928125 38.9375 8.1328125 C38.9375 8.7928125 38.9375 9.4528125 38.9375 10.1328125 C39.53046875 10.23851562 40.1234375 10.34421875 40.734375 10.453125 C43.24243596 11.22688849 44.35867734 12.15128041 46.1875 14.0078125 C46.70828125 14.52085938 47.2290625 15.03390625 47.765625 15.5625 C48.9375 17.1328125 48.9375 17.1328125 48.9375 20.1328125 C50.4225 20.6278125 50.4225 20.6278125 51.9375 21.1328125 C51.9375 22.4528125 51.9375 23.7728125 51.9375 25.1328125 C53.4225 25.6278125 53.4225 25.6278125 54.9375 26.1328125 C54.9375 27.4528125 54.9375 28.7728125 54.9375 30.1328125 C55.5975 30.1328125 56.2575 30.1328125 56.9375 30.1328125 C57.4325 34.5878125 57.4325 34.5878125 57.9375 39.1328125 C58.5975 39.1328125 59.2575 39.1328125 59.9375 39.1328125 C59.9375 48.3728125 59.9375 57.6128125 59.9375 67.1328125 C59.2775 67.1328125 58.6175 67.1328125 57.9375 67.1328125 C57.6075 70.1028125 57.2775 73.0728125 56.9375 76.1328125 C56.2775 76.1328125 55.6175 76.1328125 54.9375 76.1328125 C54.6075 78.1128125 54.2775 80.0928125 53.9375 82.1328125 C53.2775 82.1328125 52.6175 82.1328125 51.9375 82.1328125 C51.8446875 82.9990625 51.8446875 82.9990625 51.75 83.8828125 C50.61116804 87.036501 48.57428864 88.09529401 45.9375 90.1328125 C45.0181295 91.19624391 44.12215437 92.28032657 43.25 93.3828125 C42.1053125 94.7440625 42.1053125 94.7440625 40.9375 96.1328125 C40.2775 96.1328125 39.6175 96.1328125 38.9375 96.1328125 C38.9375 96.7928125 38.9375 97.4528125 38.9375 98.1328125 C37.4525 98.6278125 37.4525 98.6278125 35.9375 99.1328125 C35.6075 99.7928125 35.2775 100.4528125 34.9375 101.1328125 C30.64168473 102.40043012 27.42805702 103.1328125 22.9375 103.1328125 C22.9375 103.7928125 22.9375 104.4528125 22.9375 105.1328125 C17.69941459 106.19919797 12.63390752 106.32432109 7.3125 106.3203125 C5.99040527 106.3212793 5.99040527 106.3212793 4.64160156 106.32226562 C-2.10959025 106.26784048 -8.46425253 105.63485257 -15.0625 104.1328125 C-15.0625 103.4728125 -15.0625 102.8128125 -15.0625 102.1328125 C-17.0425 101.8028125 -19.0225 101.4728125 -21.0625 101.1328125 C-21.0625 100.4728125 -21.0625 99.8128125 -21.0625 99.1328125 C-22.3825 98.8028125 -23.7025 98.4728125 -25.0625 98.1328125 C-25.0625 97.4728125 -25.0625 96.8128125 -25.0625 96.1328125 C-25.63613281 96.04773437 -26.20976563 95.96265625 -26.80078125 95.875 C-29.7136081 94.91915008 -31.11708488 93.44274994 -33.25 91.2578125 C-34.29220703 90.20980469 -34.29220703 90.20980469 -35.35546875 89.140625 C-37.0625 87.1328125 -37.0625 87.1328125 -38.0625 84.1328125 C-38.7225 83.8028125 -39.3825 83.4728125 -40.0625 83.1328125 C-40.6875 80.0703125 -40.6875 80.0703125 -41.0625 77.1328125 C-41.7225 77.1328125 -42.3825 77.1328125 -43.0625 77.1328125 C-43.3925 74.8228125 -43.7225 72.5128125 -44.0625 70.1328125 C-44.7225 70.1328125 -45.3825 70.1328125 -46.0625 70.1328125 C-46.95150355 64.05089931 -47.21512629 58.15005847 -47.1875 52.0078125 C-47.19136719 51.14027344 -47.19523438 50.27273438 -47.19921875 49.37890625 C-47.1923247 44.84951452 -46.98309743 40.58967307 -46.0625 36.1328125 C-45.4025 36.1328125 -44.7425 36.1328125 -44.0625 36.1328125 C-44.02511719 35.52953125 -43.98773437 34.92625 -43.94921875 34.3046875 C-43.27322102 26.08667583 -43.27322102 26.08667583 -40.0625 23.1328125 C-39.4025 23.1328125 -38.7425 23.1328125 -38.0625 23.1328125 C-37.9903125 22.56820313 -37.918125 22.00359375 -37.84375 21.421875 C-36.77563972 18.29231189 -34.95182234 16.76859535 -32.5625 14.5078125 C-29.39556837 11.63004226 -29.39556837 11.63004226 -27.0625 8.1328125 C-24.5 7.5078125 -24.5 7.5078125 -22.0625 7.1328125 C-22.0625 6.4728125 -22.0625 5.8128125 -22.0625 5.1328125 C-18.44276598 3.81654558 -15.96682869 3.1328125 -12.0625 3.1328125 C-12.0625 2.4728125 -12.0625 1.8128125 -12.0625 1.1328125 C-7.99080176 0.36898982 -4.14068429 0.0045804 0 0 Z " fill="#020202" transform="translate(999.0625,1103.8671875)"/>
<path d="M0 0 C45 0 45 0 51 1 C51 1.66 51 2.32 51 3 C51.969375 3.12375 52.93875 3.2475 53.9375 3.375 C54.948125 3.58125 55.95875 3.7875 57 4 C57.495 4.99 57.495 4.99 58 6 C58.99 6.33 59.98 6.66 61 7 C62.34423339 8.65788785 63.67618483 10.32576317 65 12 C65.825 12.61875 66.65 13.2375 67.5 13.875 C70.74891088 16.63657425 72.12112749 19.17266711 74 23 C74 23.99 74 24.98 74 26 C74.66 26 75.32 26 76 26 C76 26.99 76 27.98 76 29 C76.66 29 77.32 29 78 29 C79.88258015 36.63752902 80.30611576 43.90314593 80.25 51.75 C80.26160156 53.39548828 80.26160156 53.39548828 80.2734375 55.07421875 C80.26038005 60.46041617 80.11772035 64.9645316 78 70 C77.60627253 71.45338907 77.22831606 72.91126202 76.875 74.375 C76.58625 75.57125 76.2975 76.7675 76 78 C75.34 78 74.68 78 74 78 C73.9071875 79.423125 73.9071875 79.423125 73.8125 80.875 C73.544375 81.90625 73.27625 82.9375 73 84 C71.34795544 84.70211894 69.68076231 85.36971413 68 86 C67.64984951 87.66321482 67.31802943 89.33034549 67 91 C63.10955826 94.77601698 57.52990722 99 52 99 C52 99.66 52 100.32 52 101 C47.05 101.495 47.05 101.495 42 102 C42 102.66 42 103.32 42 104 C28.14 104 14.28 104 0 104 C0 69.68 0 35.36 0 0 Z " fill="#010101" transform="translate(844,1105)"/>
<path d="M0 0 C18.81 0 37.62 0 57 0 C57 36.96 57 73.92 57 112 C38.19 112 19.38 112 0 112 C0 75.04 0 38.08 0 0 Z " fill="#FBFBFB" transform="translate(753,948)"/>
<path d="M0 0 C1.12664063 -0.00128906 2.25328125 -0.00257812 3.4140625 -0.00390625 C5.15816406 0.00189453 5.15816406 0.00189453 6.9375 0.0078125 C8.10023438 0.00394531 9.26296875 0.00007813 10.4609375 -0.00390625 C11.58757813 -0.00261719 12.71421875 -0.00132813 13.875 0 C14.89464844 0.00112793 15.91429687 0.00225586 16.96484375 0.00341797 C20.02646192 0.13668486 22.92800479 0.56825183 25.9375 1.1328125 C25.9375 1.7928125 25.9375 2.4528125 25.9375 3.1328125 C30.3925 4.1228125 30.3925 4.1228125 34.9375 5.1328125 C34.9375 5.7928125 34.9375 6.4528125 34.9375 7.1328125 C36.2575 7.4628125 37.5775 7.7928125 38.9375 8.1328125 C38.9375 8.7928125 38.9375 9.4528125 38.9375 10.1328125 C39.53046875 10.23851562 40.1234375 10.34421875 40.734375 10.453125 C43.24243596 11.22688849 44.35867734 12.15128041 46.1875 14.0078125 C46.70828125 14.52085938 47.2290625 15.03390625 47.765625 15.5625 C48.9375 17.1328125 48.9375 17.1328125 48.9375 20.1328125 C50.4225 20.6278125 50.4225 20.6278125 51.9375 21.1328125 C51.9375 22.4528125 51.9375 23.7728125 51.9375 25.1328125 C53.4225 25.6278125 53.4225 25.6278125 54.9375 26.1328125 C54.9375 27.4528125 54.9375 28.7728125 54.9375 30.1328125 C55.5975 30.1328125 56.2575 30.1328125 56.9375 30.1328125 C57.4325 34.5878125 57.4325 34.5878125 57.9375 39.1328125 C58.5975 39.1328125 59.2575 39.1328125 59.9375 39.1328125 C59.9375 48.3728125 59.9375 57.6128125 59.9375 67.1328125 C59.2775 67.1328125 58.6175 67.1328125 57.9375 67.1328125 C57.6075 70.1028125 57.2775 73.0728125 56.9375 76.1328125 C56.2775 76.1328125 55.6175 76.1328125 54.9375 76.1328125 C54.6075 78.1128125 54.2775 80.0928125 53.9375 82.1328125 C53.2775 82.1328125 52.6175 82.1328125 51.9375 82.1328125 C51.8446875 82.9990625 51.8446875 82.9990625 51.75 83.8828125 C50.61116804 87.036501 48.57428864 88.09529401 45.9375 90.1328125 C45.0181295 91.19624391 44.12215437 92.28032657 43.25 93.3828125 C42.1053125 94.7440625 42.1053125 94.7440625 40.9375 96.1328125 C40.2775 96.1328125 39.6175 96.1328125 38.9375 96.1328125 C38.9375 96.7928125 38.9375 97.4528125 38.9375 98.1328125 C37.4525 98.6278125 37.4525 98.6278125 35.9375 99.1328125 C35.6075 99.7928125 35.2775 100.4528125 34.9375 101.1328125 C30.64168473 102.40043012 27.42805702 103.1328125 22.9375 103.1328125 C22.9375 103.7928125 22.9375 104.4528125 22.9375 105.1328125 C17.69941459 106.19919797 12.63390752 106.32432109 7.3125 106.3203125 C5.99040527 106.3212793 5.99040527 106.3212793 4.64160156 106.32226562 C-2.10959025 106.26784048 -8.46425253 105.63485257 -15.0625 104.1328125 C-15.0625 103.4728125 -15.0625 102.8128125 -15.0625 102.1328125 C-17.0425 101.8028125 -19.0225 101.4728125 -21.0625 101.1328125 C-21.0625 100.4728125 -21.0625 99.8128125 -21.0625 99.1328125 C-22.3825 98.8028125 -23.7025 98.4728125 -25.0625 98.1328125 C-25.0625 97.4728125 -25.0625 96.8128125 -25.0625 96.1328125 C-25.63613281 96.04773437 -26.20976563 95.96265625 -26.80078125 95.875 C-29.7136081 94.91915008 -31.11708488 93.44274994 -33.25 91.2578125 C-34.29220703 90.20980469 -34.29220703 90.20980469 -35.35546875 89.140625 C-37.0625 87.1328125 -37.0625 87.1328125 -38.0625 84.1328125 C-38.7225 83.8028125 -39.3825 83.4728125 -40.0625 83.1328125 C-40.6875 80.0703125 -40.6875 80.0703125 -41.0625 77.1328125 C-41.7225 77.1328125 -42.3825 77.1328125 -43.0625 77.1328125 C-43.3925 74.8228125 -43.7225 72.5128125 -44.0625 70.1328125 C-44.7225 70.1328125 -45.3825 70.1328125 -46.0625 70.1328125 C-46.95150355 64.05089931 -47.21512629 58.15005847 -47.1875 52.0078125 C-47.19136719 51.14027344 -47.19523438 50.27273438 -47.19921875 49.37890625 C-47.1923247 44.84951452 -46.98309743 40.58967307 -46.0625 36.1328125 C-45.4025 36.1328125 -44.7425 36.1328125 -44.0625 36.1328125 C-44.02511719 35.52953125 -43.98773437 34.92625 -43.94921875 34.3046875 C-43.27322102 26.08667583 -43.27322102 26.08667583 -40.0625 23.1328125 C-39.4025 23.1328125 -38.7425 23.1328125 -38.0625 23.1328125 C-37.9903125 22.56820313 -37.918125 22.00359375 -37.84375 21.421875 C-36.77563972 18.29231189 -34.95182234 16.76859535 -32.5625 14.5078125 C-29.39556837 11.63004226 -29.39556837 11.63004226 -27.0625 8.1328125 C-24.5 7.5078125 -24.5 7.5078125 -22.0625 7.1328125 C-22.0625 6.4728125 -22.0625 5.8128125 -22.0625 5.1328125 C-18.44276598 3.81654558 -15.96682869 3.1328125 -12.0625 3.1328125 C-12.0625 2.4728125 -12.0625 1.8128125 -12.0625 1.1328125 C-7.99080176 0.36898982 -4.14068429 0.0045804 0 0 Z M-6.0625 5.1328125 C-6.0625 5.7928125 -6.0625 6.4528125 -6.0625 7.1328125 C-10.5175 7.6278125 -10.5175 7.6278125 -15.0625 8.1328125 C-15.0625 8.7928125 -15.0625 9.4528125 -15.0625 10.1328125 C-16.3825 10.4628125 -17.7025 10.7928125 -19.0625 11.1328125 C-19.0625 11.7928125 -19.0625 12.4528125 -19.0625 13.1328125 C-20.17625 13.2565625 -20.17625 13.2565625 -21.3125 13.3828125 C-24.60552595 14.28091049 -25.92226788 15.51697324 -28.0625 18.1328125 C-28.0625 18.7928125 -28.0625 19.4528125 -28.0625 20.1328125 C-29.0525 20.4628125 -30.0425 20.7928125 -31.0625 21.1328125 C-31.0625 21.7928125 -31.0625 22.4528125 -31.0625 23.1328125 C-32.0525 23.4628125 -33.0425 23.7928125 -34.0625 24.1328125 C-34.7225 27.4328125 -35.3825 30.7328125 -36.0625 34.1328125 C-36.7225 34.1328125 -37.3825 34.1328125 -38.0625 34.1328125 C-38.0625 35.4528125 -38.0625 36.7728125 -38.0625 38.1328125 C-38.7225 38.1328125 -39.3825 38.1328125 -40.0625 38.1328125 C-41.96499305 49.8978295 -41.53173057 61.49215411 -39.0625 73.1328125 C-38.4025 73.1328125 -37.7425 73.1328125 -37.0625 73.1328125 C-37.0625 74.1228125 -37.0625 75.1128125 -37.0625 76.1328125 C-36.4025 76.1328125 -35.7425 76.1328125 -35.0625 76.1328125 C-34.7325 77.4528125 -34.4025 78.7728125 -34.0625 80.1328125 C-33.4025 80.1328125 -32.7425 80.1328125 -32.0625 80.1328125 C-31.98 80.6896875 -31.8975 81.2465625 -31.8125 81.8203125 C-30.82503506 84.86499607 -29.15577097 86.73170756 -27.0625 89.1328125 C-26.588125 89.6896875 -26.11375 90.2465625 -25.625 90.8203125 C-22.68267394 93.29186639 -19.86220161 94.1328125 -16.0625 94.1328125 C-16.0625 94.7928125 -16.0625 95.4528125 -16.0625 96.1328125 C-12.5975 96.6278125 -12.5975 96.6278125 -9.0625 97.1328125 C-9.0625 97.7928125 -9.0625 98.4528125 -9.0625 99.1328125 C-6.7525 99.1328125 -4.4425 99.1328125 -2.0625 99.1328125 C-2.0625 99.7928125 -2.0625 100.4528125 -2.0625 101.1328125 C3.8775 101.1328125 9.8175 101.1328125 15.9375 101.1328125 C15.9375 100.4728125 15.9375 99.8128125 15.9375 99.1328125 C20.8875 98.6378125 20.8875 98.6378125 25.9375 98.1328125 C25.9375 97.4728125 25.9375 96.8128125 25.9375 96.1328125 C27.9175 95.8028125 29.8975 95.4728125 31.9375 95.1328125 C31.9375 94.4728125 31.9375 93.8128125 31.9375 93.1328125 C33.2575 92.8028125 34.5775 92.4728125 35.9375 92.1328125 C35.9375 91.4728125 35.9375 90.8128125 35.9375 90.1328125 C36.515 90.0296875 37.0925 89.9265625 37.6875 89.8203125 C40.37033024 89.00055882 41.88494333 88.04853206 43.9375 86.1328125 C44.64460678 84.48289668 45.31693989 82.81718994 45.9375 81.1328125 C46.5975 80.8028125 47.2575 80.4728125 47.9375 80.1328125 C48.59522428 77.10346759 48.59522428 77.10346759 48.9375 74.1328125 C49.5975 74.1328125 50.2575 74.1328125 50.9375 74.1328125 C50.9375 72.8128125 50.9375 71.4928125 50.9375 70.1328125 C51.5975 70.1328125 52.2575 70.1328125 52.9375 70.1328125 C53.94324733 66.79197355 54.06650115 63.74647853 54.0703125 60.265625 C54.07160156 59.13253906 54.07289062 57.99945312 54.07421875 56.83203125 C54.07035156 55.65253906 54.06648438 54.47304687 54.0625 53.2578125 C54.06636719 52.08605469 54.07023437 50.91429687 54.07421875 49.70703125 C54.07292969 48.57136719 54.07164063 47.43570312 54.0703125 46.265625 C54.06862061 44.71705811 54.06862061 44.71705811 54.06689453 43.13720703 C53.93452693 40.06378127 53.50513758 37.15363652 52.9375 34.1328125 C52.2775 34.1328125 51.6175 34.1328125 50.9375 34.1328125 C50.9375 33.4728125 50.9375 32.8128125 50.9375 32.1328125 C50.2775 32.1328125 49.6175 32.1328125 48.9375 32.1328125 C48.916875 31.3284375 48.89625 30.5240625 48.875 29.6953125 C47.26972962 23.59528505 42.64986946 18.29604405 37.9375 14.1328125 C35.33138923 13.41084088 35.33138923 13.41084088 32.9375 13.1328125 C32.9375 12.4728125 32.9375 11.8128125 32.9375 11.1328125 C31.2875 10.8028125 29.6375 10.4728125 27.9375 10.1328125 C27.9375 9.4728125 27.9375 8.8128125 27.9375 8.1328125 C24.9675 7.8028125 21.9975 7.4728125 18.9375 7.1328125 C18.9375 6.4728125 18.9375 5.8128125 18.9375 5.1328125 C10.6875 5.1328125 2.4375 5.1328125 -6.0625 5.1328125 Z " fill="#EEEEEE" transform="translate(999.0625,1103.8671875)"/>
<path d="M0 0 C45 0 45 0 51 1 C51 1.66 51 2.32 51 3 C51.969375 3.12375 52.93875 3.2475 53.9375 3.375 C54.948125 3.58125 55.95875 3.7875 57 4 C57.495 4.99 57.495 4.99 58 6 C58.99 6.33 59.98 6.66 61 7 C62.34423339 8.65788785 63.67618483 10.32576317 65 12 C65.825 12.61875 66.65 13.2375 67.5 13.875 C70.74891088 16.63657425 72.12112749 19.17266711 74 23 C74 23.99 74 24.98 74 26 C74.66 26 75.32 26 76 26 C76 26.99 76 27.98 76 29 C76.66 29 77.32 29 78 29 C79.88258015 36.63752902 80.30611576 43.90314593 80.25 51.75 C80.26160156 53.39548828 80.26160156 53.39548828 80.2734375 55.07421875 C80.26038005 60.46041617 80.11772035 64.9645316 78 70 C77.60627253 71.45338907 77.22831606 72.91126202 76.875 74.375 C76.58625 75.57125 76.2975 76.7675 76 78 C75.34 78 74.68 78 74 78 C73.9071875 79.423125 73.9071875 79.423125 73.8125 80.875 C73.544375 81.90625 73.27625 82.9375 73 84 C71.34795544 84.70211894 69.68076231 85.36971413 68 86 C67.64984951 87.66321482 67.31802943 89.33034549 67 91 C63.10955826 94.77601698 57.52990722 99 52 99 C52 99.66 52 100.32 52 101 C47.05 101.495 47.05 101.495 42 102 C42 102.66 42 103.32 42 104 C28.14 104 14.28 104 0 104 C0 69.68 0 35.36 0 0 Z M6 6 C6 36.36 6 66.72 6 98 C28.3326144 100.12239788 28.3326144 100.12239788 52 94 C52 93.34 52 92.68 52 92 C52.556875 91.896875 53.11375 91.79375 53.6875 91.6875 C59.00616691 90.1062747 62.60030572 87.09954142 65.625 82.5625 C66.83304596 80.31114163 67.5383461 78.49293104 68 76 C68.66 76 69.32 76 70 76 C70.33 73.69 70.66 71.38 71 69 C71.66 69 72.32 69 73 69 C74.25609389 63.17810451 74.14746588 57.42350458 74.125 51.5 C74.12886719 50.48035156 74.13273438 49.46070313 74.13671875 48.41015625 C74.13033083 43.49784735 74.04131478 38.82641138 73 34 C72.34 34 71.68 34 71 34 C70.505 31.03 70.505 31.03 70 28 C69.34 28 68.68 28 68 28 C67.938125 27.113125 67.87625 26.22625 67.8125 25.3125 C66.79466711 21.1628736 65.16774572 19.80777461 62 17 C61.113125 16.071875 60.22625 15.14375 59.3125 14.1875 C57.28837851 11.77093338 57.28837851 11.77093338 55 12 C55 11.34 55 10.68 55 10 C53.02 9.67 51.04 9.34 49 9 C49 8.34 49 7.68 49 7 C35.09086443 3.52271611 20.33720878 6 6 6 Z " fill="#EBEBEB" transform="translate(844,1105)"/>
<path d="M0 0 C1.98 0 3.96 0 6 0 C6 34.32 6 68.64 6 104 C4.02 104 2.04 104 0 104 C0 86.18 0 68.36 0 50 C-18.81 50 -37.62 50 -57 50 C-57 67.82 -57 85.64 -57 104 C-58.98 104 -60.96 104 -63 104 C-63 70.01 -63 36.02 -63 1 C-61.35 1 -59.7 1 -58 1 C-58 15.19 -58 29.38 -58 44 C-38.86 44 -19.72 44 0 44 C0 29.48 0 14.96 0 0 Z " fill="#EEEEEE" transform="translate(572,1105)"/>
<path d="M0 0 C16.5 0 33 0 50 0 C50 1.98 50 3.96 50 6 C35.15 6 20.3 6 5 6 C5 18.54 5 31.08 5 44 C19.85 44 34.7 44 50 44 C50 45.98 50 47.96 50 50 C35.48 50 20.96 50 6 50 C6 65.84 6 81.68 6 98 C20.52 98 35.04 98 50 98 C50 99.98 50 101.96 50 104 C33.5 104 17 104 0 104 C0 69.68 0 35.36 0 0 Z " fill="#EEEEEE" transform="translate(591,1105)"/>
<path d="M0 0 C0 0.66 0 1.32 0 2 C0.928125 2.144375 1.85625 2.28875 2.8125 2.4375 C6.86358193 3.15239681 9.43233324 3.73206048 12 7 C12.35613097 8.66194453 12.69208308 10.328451 13 12 C13.66 12.33 14.32 12.66 15 13 C14.01 13 13.02 13 12 13 C12 13.66 12 14.32 12 15 C10.35 15 8.7 15 7 15 C6.731875 14.195625 6.46375 13.39125 6.1875 12.5625 C5.5996875 11.2940625 5.5996875 11.2940625 5 10 C4.01 9.67 3.02 9.34 2 9 C2 8.34 2 7.68 2 7 C-0.64 6.67 -3.28 6.34 -6 6 C-6 5.34 -6 4.68 -6 4 C-9.3 4 -12.6 4 -16 4 C-16 4.66 -16 5.32 -16 6 C-16.969375 6.12375 -17.93875 6.2475 -18.9375 6.375 C-20.4534375 6.684375 -20.4534375 6.684375 -22 7 C-22.33 7.66 -22.66 8.32 -23 9 C-23.825 9.474375 -24.65 9.94875 -25.5 10.4375 C-28.29155483 11.81319541 -28.29155483 11.81319541 -29 15 C-29.66 15 -30.32 15 -31 15 C-31 20.28 -31 25.56 -31 31 C-30.34 31 -29.68 31 -29 31 C-28.67 31.99 -28.34 32.98 -28 34 C-27.34 34.33 -26.68 34.66 -26 35 C-26 35.66 -26 36.32 -26 37 C-24.68 37.33 -23.36 37.66 -22 38 C-22 38.66 -22 39.32 -22 40 C-19.03 40.66 -16.06 41.32 -13 42 C-13 42.66 -13 43.32 -13 44 C-10.69 44.33 -8.38 44.66 -6 45 C-6 45.66 -6 46.32 -6 47 C-5.236875 47.144375 -4.47375 47.28875 -3.6875 47.4375 C-1 48 -1 48 2 49 C2 49.66 2 50.32 2 51 C2.99 51 3.98 51 5 51 C6.7890625 52.609375 6.7890625 52.609375 8.625 54.75 C9.23601563 55.44609375 9.84703125 56.1421875 10.4765625 56.859375 C11.98257268 58.97551238 12.57725314 60.46351883 13 63 C13.66 63 14.32 63 15 63 C15.495 67.455 15.495 67.455 16 72 C16.66 72 17.32 72 18 72 C18 75.96 18 79.92 18 84 C17.34 84 16.68 84 16 84 C15.67 86.64 15.34 89.28 15 92 C14.34 92 13.68 92 13 92 C12.896875 92.78375 12.79375 93.5675 12.6875 94.375 C12 97 12 97 9 99 C8.01 99 7.02 99 6 99 C6 99.66 6 100.32 6 101 C5.01 101 4.02 101 3 101 C3 101.66 3 102.32 3 103 C-7.78775836 105.92549379 -18.17929236 105.73570938 -29 103 C-29 102.34 -29 101.68 -29 101 C-29.8353125 100.9071875 -29.8353125 100.9071875 -30.6875 100.8125 C-34.027159 99.6391063 -35.71500747 97.65553186 -38 95 C-38.8125 92.6875 -38.8125 92.6875 -39 91 C-39.66 91 -40.32 91 -41 91 C-41.495 88.03 -41.495 88.03 -42 85 C-42.66 85 -43.32 85 -44 85 C-44 84.01 -44 83.02 -44 82 C-38.25 80.875 -38.25 80.875 -36 82 C-35.731875 83.0725 -35.46375 84.145 -35.1875 85.25 C-33.8519888 89.46740378 -32.37052073 91.20493403 -29 94 C-28.01 94.33 -27.02 94.66 -26 95 C-26 95.66 -26 96.32 -26 97 C-23.03 97.33 -20.06 97.66 -17 98 C-17 98.66 -17 99.32 -17 100 C-14.03 100 -11.06 100 -8 100 C-8 99.34 -8 98.68 -8 98 C-3.05 97.505 -3.05 97.505 2 97 C2.495 95.515 2.495 95.515 3 94 C3.99 94 4.98 94 6 94 C6.33 92.35 6.66 90.7 7 89 C7.66 89 8.32 89 9 89 C9.33 86.69 9.66 84.38 10 82 C10.66 82 11.32 82 12 82 C12 79.03 12 76.06 12 73 C11.34 73 10.68 73 10 73 C9.84144531 72.40832031 9.68289063 71.81664062 9.51953125 71.20703125 C7.93291094 65.83356026 6.27375437 62.81172687 2 59 C2 58.34 2 57.68 2 57 C1.01 57 0.02 57 -1 57 C-1 56.34 -1 55.68 -1 55 C-3.64 54.34 -6.28 53.68 -9 53 C-9 52.34 -9 51.68 -9 51 C-10.093125 50.855625 -11.18625 50.71125 -12.3125 50.5625 C-16 50 -16 50 -19 49 C-19 48.34 -19 47.68 -19 47 C-19.99 47 -20.98 47 -22 47 C-22 46.34 -22 45.68 -22 45 C-23.32 44.67 -24.64 44.34 -26 44 C-26 43.34 -26 42.68 -26 42 C-26.556875 41.9175 -27.11375 41.835 -27.6875 41.75 C-30.92383975 40.7003763 -32.64780209 39.47934374 -35 37 C-35.72083017 34.26815812 -35.85754381 31.84912371 -36 29 C-36.66 29 -37.32 29 -38 29 C-38 24.71 -38 20.42 -38 16 C-37.34 16 -36.68 16 -36 16 C-35.855625 15.071875 -35.71125 14.14375 -35.5625 13.1875 C-35 10 -35 10 -34 7 C-32.35 6.67 -30.7 6.34 -29 6 C-28.67 5.01 -28.34 4.02 -28 3 C-27.34 3 -26.68 3 -26 3 C-26 2.34 -26 1.68 -26 1 C-17.28849992 -1.28498363 -8.87806461 -1.91958154 0 0 Z " fill="#EBEBEB" transform="translate(687,1105)"/>
<path d="M0 0 C1.65 0 3.3 0 5 0 C5 28.38 5 56.76 5 86 C5.66 86 6.32 86 7 86 C7.33 86.99 7.66 87.98 8 89 C8.515625 89.515625 9.03125 90.03125 9.5625 90.5625 C10.036875 91.036875 10.51125 91.51125 11 92 C11 92.66 11 93.32 11 94 C13.64 94.66 16.28 95.32 19 96 C19 96.66 19 97.32 19 98 C21.31 98 23.62 98 26 98 C26 98.66 26 99.32 26 100 C27.98 100 29.96 100 32 100 C32 99.34 32 98.68 32 98 C36.95 97.505 36.95 97.505 42 97 C42 96.34 42 95.68 42 95 C42.99 94.67 43.98 94.34 45 94 C46.02019573 93.0206121 47.02149805 92.02104551 48 91 C48.66 90.67 49.32 90.34 50 90 C50.72693904 88.02111039 51.39816251 86.02045442 52 84 C52.66 84 53.32 84 54 84 C54 56.28 54 28.56 54 0 C55.98 0 57.96 0 60 0 C60 28.05 60 56.1 60 85 C59.34 85 58.68 85 58 85 C58 86.32 58 87.64 58 89 C57.34 89 56.68 89 56 89 C55.95875 89.721875 55.9175 90.44375 55.875 91.1875 C54.61719712 95.23043784 52.32953708 96.43348183 49 99 C48.67 99.66 48.34 100.32 48 101 C36.09721804 105.91909843 26.33754022 105.62700476 14 103 C14 102.34 14 101.68 14 101 C13.01 101 12.02 101 11 101 C11 100.34 11 99.68 11 99 C10.401875 98.896875 9.80375 98.79375 9.1875 98.6875 C6.66578648 97.89496146 5.60314301 97.08408591 4 95 C4 94.01 4 93.02 4 92 C3.01 91.67 2.02 91.34 1 91 C-0.48461131 87.01327161 -0.13240981 82.75706957 -0.11352539 78.55957031 C-0.11367142 77.71042557 -0.11381744 76.86128082 -0.1139679 75.98640442 C-0.11327201 73.1836185 -0.10549476 70.38089929 -0.09765625 67.578125 C-0.09579092 65.63328081 -0.09436756 63.68843614 -0.09336853 61.74359131 C-0.08955242 56.62752991 -0.07972984 51.51149695 -0.06866455 46.39544678 C-0.05843098 41.17379135 -0.05386674 35.95213132 -0.04882812 30.73046875 C-0.03810678 20.48696668 -0.0210412 10.24348571 0 0 Z " fill="#F1F1F1" transform="translate(771,1105)"/>
<path d="M0 0 C16.83 0 33.66 0 51 0 C51 1.98 51 3.96 51 6 C43.41 6 35.82 6 28 6 C28 38.34 28 70.68 28 104 C26.02 104 24.04 104 22 104 C22 71.66 22 39.32 22 6 C14.74 6 7.48 6 0 6 C0 4.02 0 2.04 0 0 Z " fill="#ECECEC" transform="translate(709,1105)"/>
<path d="M0 0 C1.98 0 3.96 0 6 0 C6 34.32 6 68.64 6 104 C4.02 104 2.04 104 0 104 C0 69.68 0 35.36 0 0 Z " fill="#ECECEC" transform="translate(936,1105)"/>
<path d="M0 0 C0.66 0.33 1.32 0.66 2 1 C-1.82573388 4.92496041 -5.61997324 8.68179791 -10 12 C-10.66 11.67 -11.32 11.34 -12 11 C-11.01 10.67 -10.02 10.34 -9 10 C-8.67 9.01 -8.34 8.02 -8 7 C-7.34 7 -6.68 7 -6 7 C-5.67 6.01 -5.34 5.02 -5 4 C-3.37667033 2.61423077 -1.71275535 1.27358732 0 0 Z " fill="#3E3E3E" transform="translate(977,1117)"/>
</svg>
